<svg xmlns="http://www.w3.org/2000/svg" xmlns:xlink="http://www.w3.org/1999/xlink" width="500" zoomAndPan="magnify" viewBox="0 0 375 374.999991" height="500" preserveAspectRatio="xMidYMid meet" version="1.0"><defs><filter x="0%" y="0%" width="100%" height="100%" id="909847be0a"><feColorMatrix values="0 0 0 0 1 0 0 0 0 1 0 0 0 0 1 0 0 0 1 0" color-interpolation-filters="sRGB"/></filter><mask id="cfbc271215"><g filter="url(#909847be0a)"><rect x="-37.5" width="450" fill="#000000" y="-37.499999" height="449.999989" fill-opacity="0.3"/></g></mask><clipPath id="1175404757"><path d="M 56 36 L 251 36 L 251 342 L 56 342 Z M 56 36 " clip-rule="nonzero"/></clipPath><clipPath id="725c5ccc55"><path d="M 112.617188 0.667969 L 306.847656 72.199219 L 194.242188 377.964844 L 0.0117188 306.433594 Z M 112.617188 0.667969 " clip-rule="nonzero"/></clipPath><clipPath id="0730732e7b"><path d="M 209.734375 36.433594 L 250.671875 224.734375 L 97.378906 341.507812 L 56.441406 153.203125 Z M 209.734375 36.433594 " clip-rule="nonzero"/></clipPath><clipPath id="c51fea377f"><rect x="0" width="285" y="0" height="350"/></clipPath><mask id="960165670a"><g filter="url(#909847be0a)"><rect x="-37.5" width="450" fill="#000000" y="-37.499999" height="449.999989" fill-opacity="0.4"/></g></mask><clipPath id="d3d4584c0a"><path d="M 0.0078125 0.113281 L 206.992188 0.113281 L 206.992188 325.953125 L 0.0078125 325.953125 Z M 0.0078125 0.113281 " clip-rule="nonzero"/></clipPath><clipPath id="9f0f52a0a8"><path d="M 103.5 0.113281 L 206.992188 162.664062 L 103.5 325.214844 L 0.0078125 162.664062 Z M 103.5 0.113281 " clip-rule="nonzero"/></clipPath><clipPath id="93a7d206a7"><rect x="0" width="208" y="0" height="326"/></clipPath><mask id="0d42800beb"><g filter="url(#909847be0a)"><rect x="-37.5" width="450" fill="#000000" y="-37.499999" height="449.999989" fill-opacity="0.3"/></g></mask><clipPath id="b02986896e"><path d="M 34 36 L 229 36 L 229 342 L 34 342 Z M 34 36 " clip-rule="nonzero"/></clipPath><clipPath id="67bd978ec9"><path d="M -21.847656 71.96875 L 172.527344 0.832031 L 284.511719 306.824219 L 90.132812 377.960938 Z M -21.847656 71.96875 " clip-rule="nonzero"/></clipPath><clipPath id="601f7c086c"><path d="M 75.339844 36.398438 L 228.394531 153.484375 L 187.070312 341.703125 L 34.015625 224.617188 Z M 75.339844 36.398438 " clip-rule="nonzero"/></clipPath><clipPath id="b56a6c26ac"><rect x="0" width="285" y="0" height="350"/></clipPath></defs><g mask="url(#cfbc271215)"><g transform="matrix(1, 0, 0, 1, 90, 25)"><g clip-path="url(#c51fea377f)"><g clip-path="url(#1175404757)"><g clip-path="url(#725c5ccc55)"><g clip-path="url(#0730732e7b)"><path fill="#41a58d" d="M 112.617188 0.667969 L 306.847656 72.199219 L 194.523438 377.203125 L 0.289062 305.671875 Z M 112.617188 0.667969 " fill-opacity="1" fill-rule="nonzero"/></g></g></g></g></g></g><g mask="url(#960165670a)"><g transform="matrix(1, 0, 0, 1, 84, 41)"><g clip-path="url(#93a7d206a7)"><g clip-path="url(#d3d4584c0a)"><g clip-path="url(#9f0f52a0a8)"><path fill="#41a58d" d="M 0.0078125 0.113281 L 206.992188 0.113281 L 206.992188 325.144531 L 0.0078125 325.144531 Z M 0.0078125 0.113281 " fill-opacity="1" fill-rule="nonzero"/></g></g></g></g></g><g mask="url(#0d42800beb)"><g transform="matrix(1, 0, 0, 1, 0, 25)"><g clip-path="url(#b56a6c26ac)"><g clip-path="url(#b02986896e)"><g clip-path="url(#67bd978ec9)"><g clip-path="url(#601f7c086c)"><path fill="#41a58d" d="M -21.847656 71.96875 L 172.527344 0.832031 L 284.234375 306.066406 L 89.855469 377.203125 Z M -21.847656 71.96875 " fill-opacity="1" fill-rule="nonzero"/></g></g></g></g></g></g></svg>